<svg width="48" height="48" viewBox="0 0 48 48" fill="none" xmlns="http://www.w3.org/2000/svg">
<path fill-rule="evenodd" clip-rule="evenodd" d="M41.4094 21.3295C42.4028 21.1158 42.7721 21.2538 42.8529 21.2926C42.886 21.3619 42.9615 21.5891 42.9092 22.1253C42.8334 22.9037 42.5065 24.0052 41.8393 25.3839C40.5149 28.121 38.0721 31.496 34.784 34.784C31.496 38.0721 28.1211 40.5149 25.3839 41.8393C24.0052 42.5065 22.9037 42.8333 22.1253 42.9092C21.5892 42.9615 21.362 42.8859 21.2926 42.8529C21.2538 42.7721 21.1158 42.4028 21.3295 41.4094C21.5882 40.2061 22.2775 38.5864 23.4418 36.6919C24.8522 34.3969 26.8684 31.8462 29.3574 29.3573C31.8462 26.8684 34.3969 24.8521 36.6919 23.4417C38.5864 22.2775 40.2061 21.5882 41.4094 21.3295ZM1.96338 29.8953L18.1047 46.0366C19.3665 47.2984 21.078 47.5326 22.5619 47.388C24.0658 47.2414 25.7041 46.6835 27.3438 45.8901C30.6433 44.2935 34.4195 41.5125 37.966 37.966C41.5125 34.4195 44.2935 30.6433 45.8901 27.3438C46.6835 25.7041 47.2414 24.0658 47.388 22.5619C47.5326 21.078 47.2984 19.3665 46.0366 18.1047L29.8953 1.96335C28.3343 0.402315 26.1111 0.403946 24.3219 0.78873C22.4341 1.19471 20.3251 2.15721 18.1945 3.46651C15.56 5.08556 12.7366 7.33147 10.034 10.034C7.33148 12.7365 5.08557 15.56 3.46652 18.1945C2.15724 20.3251 1.19473 22.4341 0.788752 24.3219C0.403957 26.1111 0.402326 28.3343 1.96338 29.8953Z" fill="#1165EF"/>
</svg>
